####
#
# OBJ File Generated by Meshlab
#
####
# Object caixa.obj
#
# Vertices: 74
# Faces: 76
#
####
mtllib ./caixa.obj.mtl

g the_box

vn 0.0000000 0.0000000 1.0000000
v 0.7902230 -0.2932720 0.3290320
vn 0.0000000 0.0000000 1.0000000
v 0.1455440 -0.3761590 0.3290320
vn 0.0000000 0.0000000 1.0000000
v 0.7902230 -0.3761590 0.3290320
vn 0.9576362 0.2879809 0.0000000
v 0.7902230 -0.2932720 -0.3156480
vn 1.0000000 0.0000000 0.0000000
v 0.7902230 -0.3761590 0.3290320
vn 1.0000000 0.0000000 0.0000000
v 0.7902230 -0.3761590 -0.3156480
vn 0.0000000 0.2879908 -0.9576332
v 0.1455440 -0.2932720 -0.3156480
vn 0.0000000 0.0000000 -1.0000000
v 0.7902230 -0.3761590 -0.3156480
vn 0.0000000 0.0000000 -1.0000000
v 0.1455440 -0.3761590 -0.3156480
vn -0.9576432 0.2879574 0.0000000
v 0.1455440 -0.2932720 0.3290320
vn -1.0000000 0.0000000 0.0000000
v 0.1455440 -0.3761590 -0.3156480
vn -1.0000000 0.0000000 0.0000000
v 0.1455440 -0.3761590 0.3290320
vn -0.9576432 0.2879576 0.0000000
v 0.1455440 -0.2932720 -0.3156480
vn -0.8958653 0.4443257 0.0000000
v 0.1547530 -0.2840620 0.3198220
vn 0.0000000 0.4443524 0.8958521
v 0.7810130 -0.2840620 0.3198220
vn 0.0000000 0.4443482 0.8958542
v 0.1547530 -0.2840620 0.3198220
vn 0.0000000 0.2879908 0.9576332
v 0.1455440 -0.2932720 0.3290320
vn 0.0000000 -0.4443520 0.8958523
v 0.7810130 0.1764240 0.3198220
vn 0.8958523 -0.4443520 0.0000000
v 0.7810130 0.1764240 -0.3064380
vn 0.8958521 0.4443524 0.0000000
v 0.7810130 -0.2840620 0.3198220
vn 0.8958521 0.4443524 0.0000000
v 0.7810130 -0.2840620 -0.3064380
vn 0.0000000 -0.4443477 -0.8958544
v 0.1547530 0.1764240 -0.3064380
vn 0.0000000 0.4443524 -0.8958521
v 0.7810130 -0.2840620 -0.3064380
vn 0.0000000 0.4443482 -0.8958542
v 0.1547530 -0.2840620 -0.3064380
vn -0.8958656 -0.4443251 0.0000000
v 0.1547530 0.1764240 0.3198220
vn -0.8958654 0.4443256 0.0000000
v 0.1547530 -0.2840620 -0.3064380
vn -0.8958656 -0.4443252 0.0000000
v 0.1547530 0.1764240 -0.3064380
vn -0.9576433 -0.2879574 0.0000000
v 0.1455440 0.1856340 0.3290320
vn 0.0000000 -0.2879808 0.9576362
v 0.7902230 0.1856340 0.3290320
vn 0.0000000 -0.2879906 0.9576333
v 0.1455440 0.1856340 0.3290320
vn 0.0000000 -0.4443478 0.8958544
v 0.1547530 0.1764240 0.3198220
vn 0.0000000 0.0000000 1.0000000
v 0.7902230 0.2685210 0.3290320
vn 1.0000000 0.0000000 0.0000000
v 0.7902230 0.2685210 -0.3156480
vn 0.9576362 -0.2879807 0.0000000
v 0.7902230 0.1856340 0.3290320
vn 0.9576362 -0.2879808 0.0000000
v 0.7902230 0.1856340 -0.3156480
vn 0.0000000 0.0000000 -1.0000000
v 0.1455440 0.2685210 -0.3156480
vn 0.0000000 -0.2879807 -0.9576362
v 0.7902230 0.1856340 -0.3156480
vn 0.0000000 -0.2879906 -0.9576333
v 0.1455440 0.1856340 -0.3156480
vn -1.0000000 0.0000000 0.0000000
v 0.1455440 0.2685210 0.3290320
vn -0.9576433 -0.2879572 0.0000000
v 0.1455440 0.1856340 -0.3156480
vn 0.0000000 1.0000000 0.0000000
v 0.1455440 0.2685210 -0.3156480
vn 0.0000000 1.0000000 0.0000000
v 0.1455440 0.2685210 0.3290320
vn 0.3015112 0.9045342 -0.3015110
v 0.1639630 0.2685210 0.3106120
vn -0.3015115 0.9045340 -0.3015113
v 0.7718040 0.2685210 0.3106120
vn 0.0000000 1.0000000 0.0000000
v 0.7902230 0.2685210 0.3290320
vn -0.3015114 0.9045341 0.3015112
v 0.7718040 0.2685210 -0.2972280
vn -0.5773506 0.5773501 0.5773501
v 0.7718040 0.2501020 -0.2972280
vn 0.5773504 0.5773504 0.5773501
v 0.1639630 0.2501020 -0.2972280
vn -0.5773504 0.5773504 -0.5773501
v 0.7718040 0.2501020 0.3106120
vn 0.5773506 0.5773501 -0.5773501
v 0.1639630 0.2501020 0.3106120
vn 0.3015116 0.9045340 0.3015113
v 0.1639630 0.2685210 -0.2972280
vn 0.0000000 1.0000000 0.0000000
v 0.7902230 0.2685210 -0.3156480
vn 0.0000000 -0.4443519 -0.8958523
v 0.7810130 0.1764240 -0.3064380
vn 0.8958523 -0.4443519 0.0000000
v 0.7810130 0.1764240 0.3198220
vn 0.0000000 0.2879809 -0.9576362
v 0.7902230 -0.2932720 -0.3156480
vn 0.9576362 0.2879809 0.0000000
v 0.7902230 -0.2932720 0.3290320
vn 0.0000000 0.7071068 0.7071068
v 0.7902230 -0.2932720 0.3290320
vn 0.0000000 -1.0000000 0.0000000
v 0.1455440 -0.3761590 0.3290320
vn 0.0000000 -1.0000000 0.0000000
v 0.1455440 -0.3761590 -0.3156480
vn 0.3015115 -0.9045340 0.3015113
v 0.1639630 -0.3761590 -0.2972280
vn -0.3015115 -0.9045340 0.3015113
v 0.7718040 -0.3761590 -0.2972280
vn -0.5773504 -0.5773504 0.5773501
v 0.7718040 -0.3577400 -0.2972280
vn -0.5773506 -0.5773502 -0.5773501
v 0.7718040 -0.3577400 0.3106120
vn 0.5773506 -0.5773502 0.5773501
v 0.1639630 -0.3577400 -0.2972280
vn 0.5773504 -0.5773504 -0.5773501
v 0.1639630 -0.3577400 0.3106120
vn -0.3015112 -0.9045342 -0.3015110
v 0.7718040 -0.3761590 0.3106120
vn 0.0000000 -1.0000000 0.0000000
v 0.7902230 -0.3761590 -0.3156480
vn 0.0000000 -1.0000000 0.0000000
v 0.7902230 -0.3761590 0.3290320
vn 0.3015115 -0.9045340 -0.3015113
v 0.1639630 -0.3761590 0.3106120
vn 0.0000000 0.0000000 1.0000000
v 0.7902230 -0.2932720 0.3290320
vn 0.0000000 0.0000000 1.0000000
v 0.1455440 0.2685210 0.3290320
vn 1.0000000 0.0000000 0.0000000
v 0.7902230 0.2685210 0.3290320
vn 0.0000000 0.0000000 -1.0000000
v 0.7902230 0.2685210 -0.3156480
vn -1.0000000 0.0000000 0.0000000
v 0.1455440 0.2685210 -0.3156480
# 74 vertices, 0 vertices normals


usemtl material_0
vt 0.6499000 0.0607000
vt 0.3369000 0.0205000
vt 0.6499000 0.0205000
f 1/1/1 2/2/2 3/3/3
vt 0.6656000 0.7010000
vt 0.3526000 0.6607000
vt 0.6656000 0.6607000
f 4/4/4 5/5/5 6/6/6
vt 0.9797000 0.7008000
vt 0.6667000 0.6605000
vt 0.9797000 0.6605000
f 7/7/7 8/8/8 9/9/9
vt 0.3366000 0.0606000
vt 0.0236000 0.0204000
vt 0.3366000 0.0204000
f 10/10/10 11/11/11 12/12/12
vt 0.0236000 0.0606000
vt 0.3321000 0.0651000
f 13/13/13 10/10/10 14/14/14
vt 0.6454000 0.0652000
vt 0.3414000 0.0652000
vt 0.3369000 0.0607000
f 15/15/15 16/16/16 17/17/17
vt 0.6454000 0.2887000
f 18/18/18 16/16/16 15/15/15
vt 0.6611000 0.9290000
vt 0.3571000 0.7054000
vt 0.6611000 0.7054000
f 19/19/19 20/20/20 21/21/21
vt 0.9753000 0.9288000
vt 0.6712000 0.7052000
vt 0.9753000 0.7052000
f 22/22/22 23/23/23 24/24/24
vt 0.3321000 0.2887000
vt 0.0280000 0.0651000
f 25/25/25 26/26/26 14/14/14
vt 0.0280000 0.2887000
vt 0.3366000 0.2932000
f 27/27/27 25/25/25 28/28/28
vt 0.6499000 0.2932000
vt 0.3369000 0.2932000
vt 0.3414000 0.2887000
f 29/29/29 30/30/30 31/31/31
vt 0.6499000 0.3335000
f 32/32/32 30/30/30 29/29/29
vt 0.6656000 0.9737000
vt 0.3526000 0.9335000
vt 0.6656000 0.9335000
f 33/33/33 34/34/34 35/35/35
vt 0.9797000 0.9735000
vt 0.6667000 0.9333000
vt 0.9797000 0.9333000
f 36/36/36 37/37/37 38/38/38
vt 0.3366000 0.3334000
vt 0.0236000 0.2932000
f 39/39/39 40/40/40 28/28/28
vt 0.0250000 0.3350000
vt 0.3353000 0.3350000
vt 0.3264000 0.3438000
f 41/41/41 42/42/42 43/43/43
vt 0.3264000 0.6364000
vt 0.3353000 0.6453000
f 44/44/44 42/42/42 45/45/45
vt 0.0339000 0.6364000
f 46/46/46 44/44/44 45/45/45
vt 0.0395000 0.6308000
f 44/44/44 46/46/46 47/47/47
vt 0.0395000 0.3495000
f 48/48/48 47/47/47 46/46/46
vt 0.3208000 0.6308000
vt 0.3208000 0.3495000
f 49/49/49 48/48/48 50/50/50
f 49/49/49 50/50/50 43/43/43
vt 0.0339000 0.3438000
f 51/51/51 43/43/43 50/50/50
vt 0.0250000 0.6453000
f 46/46/46 52/52/52 41/41/41
f 46/46/46 51/51/51 48/48/48
f 50/50/50 48/48/48 51/51/51
f 43/43/43 44/44/44 49/49/49
f 47/47/47 49/49/49 44/44/44
f 28/28/28 40/40/40 27/27/27
vt 0.6712000 0.9288000
f 53/53/53 22/22/22 38/38/38
f 38/38/38 37/37/37 53/53/53
vt 0.3571000 0.9290000
f 35/35/35 54/54/54 19/19/19
f 31/31/31 18/18/18 29/29/29
f 14/14/14 26/26/26 13/13/13
vt 0.6667000 0.7008000
f 7/7/7 23/23/23 55/55/55
vt 0.3526000 0.7010000
f 21/21/21 56/56/56 4/4/4
f 17/17/17 57/1/57 15/15/15
vt 0.6691000 0.3461000
vt 0.6691000 0.6565000
vt 0.6779000 0.6476000
f 58/57/58 59/58/59 60/59/60
vt 0.9705000 0.6476000
f 61/60/61 60/59/60 59/58/59
vt 0.9649000 0.6420000
f 60/59/60 61/60/61 62/61/62
vt 0.9649000 0.3606000
f 63/62/63 62/61/62 61/60/61
vt 0.6835000 0.6420000
f 63/62/63 64/63/64 62/61/62
vt 0.6835000 0.3606000
vt 0.9705000 0.3550000
f 65/64/65 63/62/63 66/65/66
f 61/60/61 66/65/66 63/62/63
vt 0.9794000 0.6565000
f 66/65/66 61/60/61 67/66/67
f 59/58/59 67/66/67 61/60/61
vt 0.9794000 0.3461000
f 67/66/67 68/67/68 66/65/66
vt 0.6779000 0.3550000
f 69/68/69 66/65/66 68/67/68
f 66/65/66 69/68/69 65/64/65
f 64/63/64 65/64/65 69/68/69
f 69/68/69 60/59/60 64/63/64
f 60/59/60 69/68/69 58/57/58
f 68/67/68 58/57/58 69/68/69
f 62/61/62 64/63/64 60/59/60
f 70/1/70 17/17/17 2/2/2
f 4/4/4 56/56/56 5/5/5
f 7/7/7 55/55/55 8/8/8
f 10/10/10 13/13/13 11/11/11
f 18/18/18 31/31/31 16/16/16
f 19/19/19 54/54/54 20/20/20
f 22/22/22 53/53/53 23/23/23
f 25/25/25 27/27/27 26/26/26
vt 0.3369000 0.3335000
f 32/32/32 71/69/71 30/30/30
vt 0.3526000 0.9737000
f 33/33/33 72/70/72 34/34/34
vt 0.6667000 0.9735000
f 36/36/36 73/71/73 37/37/37
vt 0.0236000 0.3334000
f 39/39/39 74/72/74 40/40/40
f 44/44/44 43/43/43 42/42/42
f 49/49/49 47/47/47 48/48/48
f 41/41/41 43/43/43 51/51/51
f 46/46/46 45/45/45 52/52/52
f 41/41/41 51/51/51 46/46/46
f 35/35/35 34/34/34 54/54/54
f 7/7/7 24/24/24 23/23/23
f 21/21/21 20/20/20 56/56/56
f 63/62/63 65/64/65 64/63/64
# 76 faces, 72 coords texture

# End of File
